<?xml version="1.0" encoding="UTF-8" ?>
<!DOCTYPE svg PUBLIC "-//W3C//DTD SVG 1.1//EN" "http://www.w3.org/Graphics/SVG/1.1/DTD/svg11.dtd">
<svg width="2840pt" height="460pt" viewBox="0 0 2840 460" version="1.1" xmlns="http://www.w3.org/2000/svg">
<g id="#c2051fff">
<path fill="#c2051f" opacity="1.00" d=" M 200.58 38.52 C 217.17 22.28 244.17 18.20 264.51 29.73 C 282.67 39.22 294.18 59.57 293.49 79.98 C 292.81 93.31 287.54 106.51 278.11 116.06 C 237.42 156.80 196.69 197.50 155.99 238.24 C 191.84 274.94 228.37 311.05 264.56 347.45 C 274.64 357.50 280.80 371.69 280.52 386.00 C 280.92 405.67 269.21 424.75 251.98 434.01 C 232.25 445.14 206.04 441.91 189.45 426.58 C 138.77 376.26 88.27 325.78 37.78 275.29 C 18.83 255.19 19.00 221.05 38.14 201.14 C 92.23 146.88 146.43 92.72 200.58 38.52 Z" />
<path fill="#c2051f" opacity="1.00" d=" M 2574.03 50.98 C 2585.76 29.46 2613.35 17.62 2636.84 25.32 C 2645.63 27.68 2653.68 32.45 2660.13 38.85 C 2708.58 87.40 2757.10 135.88 2805.60 184.39 C 2820.81 198.20 2828.23 221.00 2821.47 240.76 C 2818.48 251.09 2812.08 260.03 2804.20 267.21 C 2751.47 319.81 2698.73 372.41 2646.01 425.03 C 2628.68 441.51 2600.60 444.60 2580.41 431.51 C 2565.55 422.54 2555.87 406.19 2554.14 389.05 C 2552.93 372.17 2560.47 355.21 2572.94 343.93 C 2612.58 304.35 2652.11 264.66 2691.74 225.06 C 2655.23 188.91 2619.04 152.43 2582.61 116.19 C 2565.64 99.58 2562.10 71.43 2574.03 50.98 Z" />
</g>
<g id="#000000ff">
<path fill="#000000" opacity="1.00" d=" M 1653.84 147.93 C 1659.50 146.33 1667.47 146.61 1670.70 152.38 C 1673.51 159.22 1671.83 166.81 1672.25 174.00 C 1671.33 190.69 1671.57 207.42 1671.52 224.14 C 1675.45 220.89 1678.40 216.54 1682.84 213.88 C 1696.58 205.05 1715.01 205.22 1729.28 212.77 C 1740.75 218.78 1749.30 229.62 1753.43 241.80 C 1761.10 263.71 1754.32 290.40 1735.89 304.89 C 1721.38 316.30 1699.86 320.04 1683.39 310.67 C 1677.80 307.93 1673.89 302.99 1669.70 298.59 C 1669.64 304.02 1669.66 311.27 1663.79 313.83 C 1658.93 315.35 1652.31 315.63 1648.95 311.08 C 1646.16 307.34 1646.81 302.38 1646.72 298.01 C 1647.64 252.35 1646.81 206.68 1646.69 161.01 C 1646.24 155.76 1648.34 149.61 1653.84 147.93 M 1694.58 230.79 C 1668.72 236.56 1663.80 275.77 1685.61 289.40 C 1696.01 296.45 1711.05 294.76 1720.04 286.12 C 1732.58 275.01 1734.71 254.00 1724.25 240.80 C 1717.58 231.76 1705.37 227.69 1694.58 230.79 Z" />
<path fill="#000000" opacity="1.00" d=" M 2273.28 148.98 C 2280.10 147.13 2288.74 149.28 2292.04 156.04 C 2295.27 162.70 2294.23 172.31 2287.50 176.45 C 2280.21 180.89 2268.94 180.68 2263.86 173.02 C 2257.93 164.45 2262.81 151.00 2273.28 148.98 Z" />
<path fill="#000000" opacity="1.00" d=" M 670.87 184.71 C 673.33 175.80 688.09 172.93 692.58 181.40 C 695.02 190.15 692.82 199.38 693.41 208.33 C 700.93 208.80 708.48 208.15 716.00 208.69 C 726.69 209.69 726.49 228.58 716.02 229.79 C 708.47 230.43 700.88 229.77 693.32 230.16 C 693.48 246.43 692.70 262.74 693.84 278.98 C 694.09 284.67 696.60 291.86 702.98 292.96 C 708.85 294.43 714.86 289.69 720.48 292.58 C 727.83 297.29 727.04 310.54 718.42 313.48 C 707.36 317.71 694.11 316.83 683.64 311.32 C 672.17 304.54 669.45 290.23 668.76 277.98 C 668.48 262.07 668.98 246.15 668.82 230.23 C 663.33 229.89 657.73 230.72 652.32 229.59 C 643.69 226.33 644.81 210.90 654.01 209.11 C 659.06 208.18 664.23 208.91 669.34 208.45 C 669.79 200.55 668.89 192.44 670.87 184.71 Z" />
<path fill="#000000" opacity="1.00" d=" M 758.01 182.01 C 762.21 174.76 776.52 173.81 778.87 182.99 C 780.58 191.37 778.64 199.96 779.35 208.42 C 786.90 208.71 794.47 208.16 802.01 208.71 C 812.59 209.99 812.18 228.64 801.75 229.80 C 794.25 230.42 786.69 229.79 779.17 230.14 C 778.72 247.09 778.22 264.13 779.89 281.03 C 780.29 286.55 783.79 292.93 789.97 293.11 C 795.52 293.96 801.23 289.71 806.51 292.66 C 813.88 297.73 812.58 311.28 803.51 313.79 C 792.23 317.62 778.78 316.86 768.44 310.69 C 757.39 303.39 755.21 289.19 754.55 276.98 C 754.37 261.40 754.87 245.82 754.72 230.24 C 749.20 229.90 743.58 230.71 738.15 229.59 C 731.61 227.38 731.07 218.22 734.11 213.05 C 738.72 206.58 747.64 209.07 754.38 208.76 C 756.89 200.03 753.42 190.19 758.01 182.01 Z" />
<path fill="#000000" opacity="1.00" d=" M 2086.75 226.77 C 2092.72 216.41 2102.71 207.62 2115.02 206.50 C 2120.27 205.77 2127.38 206.86 2129.22 212.69 C 2130.59 218.43 2130.33 226.09 2124.52 229.32 C 2119.38 231.17 2113.61 229.60 2108.46 231.59 C 2095.95 235.42 2089.23 248.64 2088.10 260.92 C 2087.19 276.42 2088.62 292.00 2087.64 307.50 C 2086.08 316.28 2074.34 317.81 2067.62 314.38 C 2060.71 309.62 2062.85 300.14 2062.61 293.00 C 2063.55 267.73 2063.42 242.42 2063.37 217.13 C 2063.23 206.98 2079.27 203.35 2084.05 211.89 C 2086.18 216.55 2085.16 221.93 2086.75 226.77 Z" />
<path fill="#000000" opacity="1.00" d=" M 345.93 221.00 C 341.75 207.95 366.15 201.25 369.82 214.21 C 376.03 236.87 381.31 259.78 387.82 282.36 C 395.78 265.46 400.94 247.25 407.64 229.77 C 409.93 224.35 410.91 218.27 414.35 213.40 C 420.35 206.20 434.36 207.10 437.81 216.46 C 446.74 238.15 454.12 260.48 462.99 282.20 C 469.02 261.17 474.19 239.89 479.94 218.78 C 481.07 214.24 483.69 209.03 488.99 208.67 C 496.72 207.23 508.11 213.12 505.21 222.30 C 496.64 250.18 488.45 278.22 478.68 305.70 C 476.12 316.02 462.17 318.38 454.40 312.62 C 451.27 310.10 449.97 306.13 448.40 302.58 C 440.31 282.85 433.32 262.68 426.01 242.65 C 425.74 242.66 425.19 242.66 424.92 242.66 C 417.40 262.59 409.86 282.50 402.22 302.38 C 400.22 307.67 397.21 313.39 391.43 315.21 C 386.11 316.55 379.62 316.55 375.30 312.68 C 371.95 309.58 370.69 305.01 369.32 300.82 C 361.40 274.25 353.38 247.70 345.93 221.00 Z" />
<path fill="#000000" opacity="1.00" d=" M 537.14 222.13 C 549.98 209.45 570.12 203.61 587.44 209.49 C 594.83 211.75 600.52 217.15 605.66 222.67 C 606.47 217.75 606.85 211.53 611.95 209.02 C 618.76 204.97 629.10 209.54 628.96 217.97 C 629.43 246.96 628.08 276.02 629.62 305.00 C 630.11 314.26 618.00 317.51 611.21 313.77 C 606.47 310.04 606.28 303.41 605.29 297.95 C 595.02 314.43 573.32 319.68 555.52 313.75 C 539.29 309.32 526.51 295.31 522.62 279.08 C 517.81 259.33 522.58 236.76 537.14 222.13 M 569.45 229.78 C 543.81 235.71 538.22 276.12 559.96 289.98 C 571.11 297.18 587.05 294.69 595.99 285.06 C 606.23 273.95 607.19 256.08 600.01 243.12 C 594.19 232.59 581.11 227.04 569.45 229.78 Z" />
<path fill="#000000" opacity="1.00" d=" M 966.71 207.95 C 979.95 206.28 993.87 207.51 1006.28 212.59 C 1011.63 214.44 1015.22 220.53 1012.87 226.01 C 1011.63 231.39 1005.29 233.44 1000.43 232.05 C 989.96 229.48 979.18 225.26 968.28 228.01 C 962.24 229.38 955.00 233.90 956.15 241.06 C 956.34 246.51 962.58 248.28 966.99 249.14 C 980.75 251.51 995.73 252.23 1007.43 260.76 C 1018.51 269.12 1019.25 285.79 1013.33 297.42 C 1007.82 307.77 996.38 313.07 985.28 314.99 C 971.94 317.08 958.14 315.80 945.30 311.68 C 940.34 309.91 934.92 307.64 932.16 302.87 C 930.56 296.90 933.81 288.45 940.98 288.65 C 951.28 288.86 960.60 294.79 970.98 294.78 C 978.21 295.19 986.95 295.03 991.76 288.68 C 995.94 283.53 993.39 275.20 987.14 273.10 C 972.18 267.69 954.59 269.64 941.30 259.69 C 931.06 252.29 930.36 236.96 936.65 226.77 C 943.00 216.19 954.88 210.13 966.71 207.95 Z" />
<path fill="#000000" opacity="1.00" d=" M 1084.54 207.91 C 1095.31 205.81 1106.21 208.99 1116.11 213.06 C 1147.58 227.81 1153.56 275.35 1129.43 299.32 C 1108.16 321.48 1068.09 321.85 1047.73 298.24 C 1030.61 279.05 1031.90 247.94 1047.19 228.09 C 1056.19 216.51 1070.24 209.91 1084.54 207.91 M 1082.38 230.73 C 1055.76 237.89 1052.34 282.63 1079.03 292.12 C 1089.29 295.57 1101.34 292.65 1109.04 285.08 C 1120.66 274.21 1122.21 254.72 1113.30 241.73 C 1106.65 232.08 1093.62 227.50 1082.38 230.73 Z" />
<path fill="#000000" opacity="1.00" d=" M 1194.33 226.08 C 1205.99 205.89 1235.84 201.24 1254.01 215.08 C 1263.82 222.88 1268.18 235.72 1268.53 247.91 C 1269.32 265.60 1268.26 283.32 1268.58 301.03 C 1268.91 306.30 1267.28 312.71 1261.65 314.49 C 1255.09 317.05 1244.33 315.37 1243.33 307.01 C 1242.98 290.35 1243.72 273.68 1243.51 257.02 C 1243.03 247.23 1240.90 234.67 1230.45 230.77 C 1220.71 228.12 1208.43 229.39 1201.68 237.69 C 1196.72 244.36 1195.05 252.90 1194.74 261.05 C 1194.22 276.06 1194.94 291.10 1194.61 306.11 C 1193.86 319.25 1169.45 319.68 1169.22 306.11 C 1169.42 277.05 1169.43 247.97 1169.46 218.92 C 1169.39 208.71 1182.38 205.35 1189.82 209.99 C 1194.48 213.94 1193.16 220.69 1194.33 226.08 Z" />
<path fill="#000000" opacity="1.00" d=" M 1347.38 222.45 C 1341.16 208.75 1367.05 200.56 1370.93 214.31 C 1377.21 236.89 1382.39 259.79 1388.90 282.32 C 1391.63 278.67 1392.55 274.11 1394.20 269.94 C 1399.91 254.57 1405.43 239.12 1410.91 223.67 C 1412.35 219.74 1413.33 215.36 1416.42 212.34 C 1423.02 206.16 1436.07 207.75 1439.17 216.93 C 1447.80 238.55 1455.47 260.56 1464.02 282.22 C 1470.72 260.13 1475.50 237.47 1482.20 215.38 C 1486.14 202.43 1510.41 209.30 1506.26 222.52 C 1498.54 248.18 1490.58 273.77 1482.20 299.23 C 1480.49 303.61 1479.29 308.46 1476.06 312.03 C 1468.24 318.66 1453.64 316.16 1450.73 305.53 C 1441.87 284.82 1435.10 263.28 1426.69 242.40 C 1417.06 263.71 1410.39 286.35 1400.86 307.73 C 1397.24 315.95 1386.39 317.94 1378.84 314.40 C 1373.86 311.86 1372.16 306.13 1370.54 301.21 C 1362.67 275.00 1354.88 248.77 1347.38 222.45 Z" />
<path fill="#000000" opacity="1.00" d=" M 1553.89 211.92 C 1569.93 204.24 1590.03 206.02 1604.29 216.71 C 1614.36 224.21 1622.05 236.11 1621.79 249.00 C 1621.74 253.68 1622.06 259.00 1618.80 262.80 C 1615.63 266.41 1610.45 266.94 1605.97 267.26 C 1586.65 267.69 1567.33 267.41 1548.02 267.78 C 1547.79 277.11 1554.17 285.50 1562.08 289.85 C 1573.40 295.81 1587.29 293.13 1598.07 287.22 C 1602.39 284.63 1608.42 282.56 1612.87 286.02 C 1619.04 290.10 1619.74 300.19 1613.66 304.69 C 1600.60 314.84 1583.05 317.01 1567.02 315.58 C 1542.70 312.78 1522.00 290.67 1522.13 265.98 C 1521.07 243.90 1533.61 221.28 1553.89 211.92 M 1571.87 228.13 C 1559.95 229.63 1549.30 239.45 1547.96 251.55 C 1564.56 251.39 1581.23 252.00 1597.76 250.08 C 1599.16 236.40 1584.71 225.60 1571.87 228.13 Z" />
<path fill="#000000" opacity="1.00" d=" M 1868.50 207.92 C 1882.26 206.33 1896.92 207.48 1909.58 213.45 C 1916.22 216.23 1916.75 226.16 1911.57 230.51 C 1906.22 234.40 1899.63 231.41 1894.00 229.95 C 1883.64 226.91 1871.09 224.86 1861.84 231.80 C 1857.14 234.92 1855.60 242.85 1860.73 246.28 C 1868.10 250.41 1876.89 249.94 1884.95 251.76 C 1896.24 253.69 1908.91 257.38 1915.23 267.78 C 1922.79 282.13 1917.39 302.34 1902.50 309.68 C 1883.02 319.21 1858.91 317.59 1839.61 308.43 C 1832.59 305.83 1831.66 296.51 1836.35 291.36 C 1840.55 286.90 1847.37 288.80 1852.51 290.33 C 1864.15 294.09 1877.68 297.70 1889.33 292.23 C 1896.89 288.91 1897.57 276.63 1889.52 273.48 C 1874.76 267.56 1857.22 269.87 1843.76 260.28 C 1834.05 254.03 1831.96 240.46 1836.48 230.41 C 1841.89 217.63 1855.36 210.30 1868.50 207.92 Z" />
<path fill="#000000" opacity="1.00" d=" M 1973.29 210.26 C 1992.46 202.88 2016.03 209.08 2028.62 225.42 C 2036.20 234.80 2039.26 247.74 2036.15 259.45 C 2034.20 265.29 2027.49 266.97 2022.02 267.21 C 2002.44 267.73 1982.86 267.42 1963.28 267.75 C 1963.31 279.67 1973.05 289.93 1984.37 292.47 C 1994.22 294.46 2004.54 292.11 2013.24 287.30 C 2017.10 285.10 2021.79 283.08 2026.22 284.86 C 2034.00 288.14 2035.96 299.83 2028.84 304.88 C 2016.42 314.30 2000.12 316.73 1984.92 315.82 C 1965.51 314.51 1947.63 301.13 1940.74 282.96 C 1930.05 255.38 1945.07 220.21 1973.29 210.26 M 1986.97 228.21 C 1975.06 229.67 1964.83 239.52 1963.15 251.44 C 1979.88 251.10 1997.08 252.79 2013.51 249.40 C 2013.63 235.96 1999.86 225.51 1986.97 228.21 Z" />
<path fill="#000000" opacity="1.00" d=" M 2139.67 211.67 C 2145.37 205.49 2157.57 205.37 2160.86 214.15 C 2170.87 237.67 2179.70 261.70 2189.54 285.29 C 2200.41 262.48 2208.48 238.41 2218.13 215.07 C 2221.89 205.13 2237.05 205.99 2241.54 214.75 C 2243.39 219.63 2241.31 224.86 2239.44 229.41 C 2229.76 251.02 2220.00 272.59 2210.17 294.13 C 2207.57 299.74 2205.38 305.65 2201.52 310.55 C 2196.12 317.46 2184.39 317.97 2178.45 311.51 C 2175.46 308.27 2173.62 304.19 2171.76 300.26 C 2160.68 275.30 2149.55 250.38 2138.49 225.42 C 2136.58 221.10 2135.99 215.23 2139.67 211.67 Z" />
<path fill="#000000" opacity="1.00" d=" M 2272.58 207.80 C 2277.26 206.61 2282.87 206.99 2286.56 210.46 C 2289.72 213.76 2289.67 218.67 2289.73 222.95 C 2289.63 250.58 2289.85 278.22 2289.62 305.85 C 2289.51 319.38 2264.71 319.58 2264.60 305.98 C 2264.42 276.99 2264.51 247.99 2264.56 219.00 C 2264.31 213.97 2267.73 209.18 2272.58 207.80 Z" />
<path fill="#000000" opacity="1.00" d=" M 2360.48 207.87 C 2373.77 205.74 2388.36 207.59 2399.54 215.50 C 2408.06 222.02 2400.65 238.46 2390.00 235.28 C 2381.28 231.84 2371.73 227.78 2362.29 231.10 C 2341.82 237.82 2333.88 266.82 2347.77 283.19 C 2356.12 293.75 2372.03 295.65 2383.65 289.74 C 2388.20 287.63 2393.02 283.88 2398.31 285.73 C 2405.82 288.99 2408.52 301.33 2401.00 306.09 C 2382.76 319.51 2355.89 319.22 2337.24 306.76 C 2319.81 294.81 2311.33 271.34 2317.23 251.02 C 2322.05 230.10 2338.97 211.73 2360.48 207.87 Z" />
<path fill="#000000" opacity="1.00" d=" M 2420.63 257.02 C 2422.98 231.11 2445.29 207.40 2471.99 207.23 C 2496.68 205.79 2522.54 227.10 2519.84 253.01 C 2520.73 260.16 2515.28 266.68 2508.06 266.87 C 2487.44 268.14 2466.72 267.15 2446.07 267.82 C 2446.23 282.10 2460.04 293.76 2474.01 293.17 C 2483.68 293.60 2492.49 289.19 2500.89 285.00 C 2508.23 281.56 2516.30 288.37 2516.18 295.92 C 2516.02 302.96 2509.45 307.05 2503.78 309.72 C 2487.80 316.96 2468.55 318.51 2452.06 312.04 C 2430.79 303.60 2416.74 279.72 2420.63 257.02 M 2445.97 251.41 C 2462.59 251.60 2479.28 251.87 2495.84 250.13 C 2496.82 240.36 2489.59 231.20 2480.28 228.85 C 2465.18 224.26 2448.01 235.86 2445.97 251.41 Z" />
<path fill="#000000" opacity="1.00" d=" M 826.42 214.40 C 829.03 209.07 835.76 208.50 841.00 208.64 C 861.34 209.00 881.71 208.50 902.04 209.01 C 909.21 208.83 913.39 216.52 911.28 222.89 C 907.47 234.59 897.83 242.90 890.16 252.09 C 878.91 265.70 866.05 278.09 855.77 292.43 C 872.19 292.41 888.61 291.31 905.03 291.65 C 916.05 292.48 916.79 311.15 906.49 313.76 C 903.75 314.62 900.84 314.56 898.01 314.54 C 878.01 313.99 858.01 314.81 838.02 314.67 C 832.95 314.68 826.97 312.41 825.61 307.02 C 822.80 299.46 827.76 292.04 832.13 286.22 C 847.44 267.09 865.16 249.90 880.19 230.58 C 864.55 230.24 848.87 232.32 833.26 231.03 C 825.79 229.77 823.85 220.46 826.42 214.40 Z" />
</g>
</svg>
